REM MD5 74138c034248c4aeb7b401c7bcb3ce31
FILE "WCW Nitro (Europe) (Demo).bin" BINARY
  TRACK 01 MODE2/2352
    INDEX 01 00:00:00
  TRACK 02 AUDIO
    INDEX 00 03:26:53
    INDEX 01 03:28:53
  TRACK 03 AUDIO
    INDEX 00 04:07:26
    INDEX 01 04:09:26
REM LEADOUT 07:09:27
